<svg width="7" height="7" viewBox="0 0 7 7" fill="none" xmlns="http://www.w3.org/2000/svg">
<path d="M6.17622 2.76043C5.85407 1.34299 4.61765 0.704834 3.53155 0.704834H3.52849C2.44546 0.704834 1.20597 1.33992 0.883824 2.75736C0.524861 4.34048 1.49437 5.68122 2.37183 6.52493C2.68285 6.82597 3.09871 6.99429 3.53155 6.99435C3.94881 6.99435 4.36607 6.83787 4.68821 6.52493C5.56567 5.68122 6.53518 4.34355 6.17622 2.76043ZM3.53155 4.29753C3.40464 4.29753 3.27897 4.27253 3.16172 4.22396C3.04446 4.17539 2.93792 4.1042 2.84818 4.01446C2.75844 3.92472 2.68725 3.81818 2.63868 3.70093C2.59011 3.58367 2.56512 3.458 2.56512 3.33109C2.56512 3.20417 2.59011 3.0785 2.63868 2.96125C2.68725 2.844 2.75844 2.73746 2.84818 2.64771C2.93792 2.55797 3.04446 2.48678 3.16172 2.43822C3.27897 2.38965 3.40464 2.36465 3.53155 2.36465C3.78787 2.36465 4.03369 2.46647 4.21493 2.64771C4.39617 2.82896 4.49799 3.07477 4.49799 3.33109C4.49799 3.5874 4.39617 3.83322 4.21493 4.01446C4.03369 4.1957 3.78787 4.29753 3.53155 4.29753Z" fill="black"/>
</svg>
