<svg width="6" height="6" viewBox="0 0 6 6" fill="none" xmlns="http://www.w3.org/2000/svg">
<path d="M4.06418 0.97583C3.57134 0.97583 3.13023 1.21141 2.85522 1.5728C2.71475 1.38777 2.53235 1.23748 2.32249 1.13385C2.11263 1.03023 1.88109 0.976121 1.64625 0.97583C0.810324 0.97583 0.132324 1.64508 0.132324 2.47227C0.132324 2.79084 0.184059 3.08531 0.273915 3.35836C0.704131 4.69686 2.03018 5.49728 2.6864 5.7168C2.77897 5.74892 2.93146 5.74892 3.02404 5.7168C3.68025 5.49728 5.0063 4.69686 5.43652 3.35836C5.52637 3.08531 5.57811 2.79084 5.57811 2.47227C5.57811 1.64508 4.90011 0.97583 4.06418 0.97583Z" fill="#F69F17"/>
</svg>
